<svg viewBox="0 0 48 48" fill="none" xmlns="http://www.w3.org/2000/svg">
<path d="M0 48L3.37 35.67C1.29 32.06 0.200012 27.97 0.200012 23.78C0.210012 10.67 10.88 0 23.99 0C30.35 0 36.32 2.48 40.81 6.98C45.3 11.48 47.77 17.45 47.77 23.81C47.77 36.92 37.1 47.59 23.99 47.59C20.01 47.59 16.08 46.59 12.61 44.69L0 48ZM13.19 40.38C16.55 42.37 19.75 43.56 23.98 43.56C34.87 43.56 43.75 34.69 43.76 23.79C43.76 12.87 34.93 4.01 23.99 4.01C13.09 4.01 4.21997 12.88 4.21997 23.78C4.20997 28.23 5.52002 31.56 7.71002 35.05L5.71002 42.35L13.19 40.39V40.38ZM35.97 29.45C35.82 29.2 35.42 29.05 34.83 28.76C34.23 28.46 31.31 27.02 30.77 26.83C30.22 26.63 29.83 26.53 29.43 27.13C29.03 27.72 27.89 29.06 27.55 29.46C27.2 29.86 26.85 29.91 26.26 29.61C25.66 29.31 23.75 28.69 21.48 26.66C19.71 25.08 18.52 23.14 18.17 22.54C17.83 21.95 18.14 21.62 18.43 21.33C18.7 21.06 19.03 20.64 19.32 20.29C19.63 19.95 19.72 19.7 19.92 19.3C20.12 18.9 20.02 18.56 19.87 18.26C19.72 17.96 18.54 15.04 18.04 13.85C17.56 12.69 17.07 12.85 16.7 12.83L15.56 12.81C15.17 12.81 14.52 12.96 13.98 13.55C13.44 14.15 11.9 15.58 11.9 18.51C11.9 21.44 14.03 24.26 14.33 24.66C14.62 25.06 18.52 31.06 24.48 33.63C25.9 34.24 27 34.61 27.87 34.88C29.29 35.33 30.59 35.27 31.61 35.12C32.75 34.95 35.13 33.68 35.62 32.29C36.12 30.9 36.12 29.71 35.97 29.46V29.45Z" fill="white"/>
</svg>
